<svg xmlns="http://www.w3.org/2000/svg" width="128" height="128" viewBox="0 0 20 20"><g fill="none"><path fill="url(#IconifyId19ae91a965c7e6c0c3908)" fill-rule="evenodd" d="M8 4a1 1 0 0 1 1-1h8a1 1 0 1 1 0 2H9a1 1 0 0 1-1-1m0 6a1 1 0 0 1 1-1h8a1 1 0 1 1 0 2H9a1 1 0 0 1-1-1m0 6a1 1 0 0 1 1-1h8a1 1 0 1 1 0 2H9a1 1 0 0 1-1-1" clip-rule="evenodd"/><path fill="url(#IconifyId19ae91a965c7e6c0c3909)" d="M2 15.5A1.5 1.5 0 0 1 3.5 14h1A1.5 1.5 0 0 1 6 15.5v1A1.5 1.5 0 0 1 4.5 18h-1A1.5 1.5 0 0 1 2 16.5zm0-6A1.5 1.5 0 0 1 3.5 8h1A1.5 1.5 0 0 1 6 9.5v1A1.5 1.5 0 0 1 4.5 12h-1A1.5 1.5 0 0 1 2 10.5zm0-6A1.5 1.5 0 0 1 3.5 2h1A1.5 1.5 0 0 1 6 3.5v1A1.5 1.5 0 0 1 4.5 6h-1A1.5 1.5 0 0 1 2 4.5z"/><defs><linearGradient id="IconifyId19ae91a965c7e6c0c3908" x1="6.5" x2="17" y1="1" y2="17" gradientUnits="userSpaceOnUse"><stop stop-color="#36DFF1"/><stop offset="1" stop-color="#0094F0"/></linearGradient><linearGradient id="IconifyId19ae91a965c7e6c0c3909" x1="2.951" x2="4.99" y1="4.127" y2="17.147" gradientUnits="userSpaceOnUse"><stop offset=".125" stop-color="#9C6CFE"/><stop offset="1" stop-color="#7A41DC"/></linearGradient></defs></g></svg>